# xmcd
#
# Track frame offsets:
#	150
#	14342
#	26552
#	39387
#	54705
#	68905
#	83787
#	95075
#	108307
#	123197
#	137295
#	152975
#	167042
#	178167
#	188952
#	203135
#	216560
#	230330
#	244295
#	257770
#
# Disc length: 3579 seconds
#
# Revision: 1
# Processed by: cddbd v1.5.1PL0 Copyright (c) Steve Scherf et al.
# Submitted via: audiograbber 1.83.01
#
DISCID=1d0df914
DTITLE=Memphis Jug Band - Complete Recorded Works in Chronologiical Order, Volu
DTITLE=me 3
DYEAR=1900
DGENRE=
TTITLE0=Everybody's Talking About Sadie Green
TTITLE1=Oh Ambulance Man
TTITLE2=Cocaine Habit Blues
TTITLE3=Jim Stainer Blues
TTITLE4=Caveman Blues
TTITLE5=Fourth Street Mess Around
TTITLE6=It Won't Act Right
TTITLE7=Bumble Bee Blues
TTITLE8=Meningitis Blues
TTITLE9=Aunt Caroline Dyer Blues
TTITLE10=Stonewall Blues
TTITLE11=Spider's Nest Blues
TTITLE12=Papa's Got Your Bath Water On
TTITLE13=Going Back to Memphis
TTITLE14=He's In the Jailhouse Now
TTITLE15=Got a Letter from My Darlin'
TTITLE16=Round and Round
TTITLE17=You May Leave But This Will Bring You Back
TTITLE18=Move That Thing
TTITLE19=You Got Me Rollin'
EXTD=
EXTT0=
EXTT1=
EXTT2=
EXTT3=
EXTT4=
EXTT5=
EXTT6=
EXTT7=
EXTT8=
EXTT9=
EXTT10=
EXTT11=
EXTT12=
EXTT13=
EXTT14=
EXTT15=
EXTT16=
EXTT17=
EXTT18=
EXTT19=
PLAYORDER=
